<?xml version="1.0" standalone="no"?> <!DOCTYPE svg PUBLIC "-//W3C//DTD SVG 1.0//EN" "http://www.w3.org/TR/2001/REC-SVG-20010904/DTD/svg10.dtd" > <svg xmlns="http://www.w3.org/2000/svg" width="100%" height="100%">
<defs >
<font id="ftr_____" horiz-adv-x="963" ><font-face
    font-family="Frutiger 55 Roman"
    units-per-em="2048"
    panose-1="2 11 5 0 0 0 0 0 0 0"
    ascent="1536"
    descent="-431"
    alphabetic="0" />
<missing-glyph horiz-adv-x="1024" d="M102 0V1049H922V0H102ZM119 16H905V1032H119V16Z" />
<glyph unicode=" " glyph-name="space" horiz-adv-x="569" />
<glyph unicode="!" glyph-name="exclam" horiz-adv-x="797" d="M514 1429H285L311 401H487L514 1429ZM285 0H514V229H285V0Z" />
<glyph unicode="&quot;" glyph-name="quotedbl" horiz-adv-x="1139" d="M633 928H813V1429H633V928ZM326 928H506V1429H326V928Z" />
<glyph unicode="#" glyph-name="numbersign" horiz-adv-x="1139" d="M192 0H348L408 426H649L590 0H745L805 426H1022V582H827L864 848H1081V1003H887L946 1429H790L731 1003H489L549 1429H393L334 1003H115V848H311L274 582H57V426H252L192 0ZM672 582H430L467
848H709L672 582Z" />
<glyph unicode="$" glyph-name="dollar" horiz-adv-x="1139" d="M506 1257V891V891Q455 922 416 965Q371 1008 371 1071Q371 1147 408 1192Q442 1235 506 1257V1257ZM625 594V594Q688 565 729 518Q768 471 768 387Q768 317 729 260Q690 201 625 178V594ZM506 -217H625V-12Q977
53 985 399Q985 539 924 620Q862 704 743 764L625 829V1274H645Q786 1274 889 1214V1214L917 1403Q776 1452 625 1454V1651H506V1446Q354 1423 256 1323Q156 1223 154 1065Q154 919 236 833Q315 747 436 688L506 653V156H477Q303 154 195 231V231L170 35Q307 -25
481 -25H506V-217Z" />
<glyph unicode="%" glyph-name="percent" horiz-adv-x="2048" d="M532 635Q709 637 776 764Q842 885 840 1044Q842 1212 780 1331Q717 1452 532 1454Q350 1452 287 1333Q254 1278 240 1202Q225 1128 225 1044Q225 967 242 895Q256 823 293 764Q360 637 532 635V635ZM1515
119Q1470 119 1446 152Q1419 180 1407 223Q1395 268 1393 311Q1388 352 1388 385Q1386 459 1405 551Q1417 594 1444 623Q1470 651 1515 651Q1567 651 1593 625Q1622 596 1630 555Q1642 514 1644 469Q1642 422 1642 385Q1644 315 1626 223Q1614 180 1589 152Q1563
119 1515 119V119ZM506 -45H653L1540 1474H1393L506 -45ZM1515 -25Q1692 -20 1759 104Q1825 225 1823 385Q1825 553 1763 672Q1700 793 1515 795Q1333 793 1270 674Q1237 618 1223 543Q1208 469 1208 385Q1208 307 1225 236Q1239 164 1276 104Q1343 -20 1515 -25V-25ZM532
778Q487 778 463 811Q436 840 424 883Q412 928 410 971Q405 1012 405 1044Q403 1118 422 1210Q434 1253 461 1282Q487 1311 532 1311Q584 1311 610 1284Q639 1255 647 1214Q659 1173 661 1128Q659 1081 659 1044Q661 975 643 883Q631 840 606 811Q580 778 532 778V778Z"
/>
<glyph unicode="&amp;" glyph-name="ampersand" horiz-adv-x="1479" d="M1135 772Q1124 543 1046 426V426L756 758Q876 809 971 903Q1067 995 1069 1130Q1067 1298 962 1378Q860 1454 715 1454Q557 1454 453 1372Q344 1290 342 1118Q342 1018 389 940Q432 862
489 793Q344 737 258 637Q170 537 170 375Q178 -14 631 -25Q895 -27 1040 139V139L1157 0H1413L1163 283Q1227 375 1270 489Q1315 604 1327 772H1135ZM387 389Q389 496 448 557Q506 618 588 672V672L932 268Q899 227 833 182Q803 160 762 147Q719 131 668 131Q553
131 473 203Q389 272 387 389V389ZM534 1114Q534 1206 586 1253Q635 1298 707 1298Q782 1298 829 1261Q876 1221 876 1122Q874 1034 803 969Q733 903 661 872V872Q614 924 575 985Q534 1044 534 1114V1114Z" />
<glyph unicode="&apos;" glyph-name="quotesingle" horiz-adv-x="569" d="M195 928H375V1429H195V928Z" />
<glyph unicode="(" glyph-name="parenleft" horiz-adv-x="682" d="M653 -287Q526 -78 436 154Q340 385 338 631Q340 881 438 1110Q532 1339 653 1548H469Q328 1339 233 1116Q135 893 133 631Q135 375 233 147Q328 -78 469 -287H653Z" />
<glyph unicode=")" glyph-name="parenright" horiz-adv-x="682" d="M29 1548Q156 1339 250 1110Q342 881 344 631Q342 385 248 156Q154 -74 29 -287H213Q354 -74 451 149Q547 373 549 631Q547 889 453 1114Q358 1341 213 1548H29Z" />
<glyph unicode="*" glyph-name="asterisk" horiz-adv-x="1139" d="M569 917L735 635V635L889 737L670 989L991 1057L936 1231V1231L637 1104V1104L668 1429H481L514 1104V1104L205 1231V1231L147 1057L475 989L250 737L401 635V635L569 917V917Z" />
<glyph unicode="+" glyph-name="plus" horiz-adv-x="1229" d="M96 428H524V0H704V428H1132V608H704V1036H524V608H96V428Z" />
<glyph unicode="," glyph-name="comma" horiz-adv-x="569" d="M41 -272H225L399 229H170L41 -272Z" />
<glyph unicode="-" glyph-name="hyphen" horiz-adv-x="682" d="M78 473H604V629H78V473Z" />
<glyph unicode="." glyph-name="period" horiz-adv-x="569" d="M170 0H399V229H170V0Z" />
<glyph unicode="/" glyph-name="slash" horiz-adv-x="569" d="M-51 -25H129L620 1454H440L-51 -25Z" />
<glyph unicode="0" glyph-name="zero" horiz-adv-x="1139" d="M84 715Q84 596 106 469Q127 342 180 229Q236 117 330 47Q424 -23 569 -25Q719 -23 815 47Q909 117 960 229Q1016 342 1036 469Q1055 596 1055 715Q1055 838 1036 965Q1016 1094 960 1202Q909 1315
815 1384Q719 1452 569 1454Q424 1452 330 1384Q236 1315 180 1202Q127 1094 106 965Q84 838 84 715V715ZM301 715Q301 784 311 883Q322 977 348 1069Q375 1163 430 1225Q485 1284 569 1286Q657 1284 713 1225Q766 1163 793 1069Q840 868 838 715Q838 647 831 553Q823
457 797 362Q770 270 717 209Q661 143 569 143Q477 143 426 209Q371 270 344 362Q317 457 309 553Q301 647 301 715V715Z" />
<glyph unicode="1" glyph-name="one" horiz-adv-x="1139" d="M551 1194V0H756V1429H573L223 1143L332 1005V1005L551 1194V1194Z" />
<glyph unicode="2" glyph-name="two" horiz-adv-x="1139" d="M102 0H1008V168H322Q440 270 573 397Q704 520 842 692Q905 778 946 868Q987 958 987 1046Q985 1249 852 1352Q721 1454 522 1454Q328 1452 147 1370L168 1194V1194Q227 1229 315 1257Q358 1270 403
1280Q451 1286 496 1286Q616 1284 692 1225Q768 1161 770 1059Q770 973 729 889Q688 805 625 725Q489 563 358 448Q219 319 102 219V0Z" />
<glyph unicode="3" glyph-name="three" horiz-adv-x="1139" d="M297 659H422Q565 661 670 604Q776 545 778 387Q774 254 664 199Q555 141 430 143Q338 143 256 170Q174 192 117 221V221L104 31Q250 -20 432 -25Q653 -27 821 57Q991 141 995 381Q993 534 909 623Q821
709 676 735V739Q803 764 893 848Q981 930 983 1065Q981 1268 844 1362Q711 1454 514 1454Q315 1450 156 1390L168 1208V1208Q231 1243 311 1266Q391 1286 485 1286Q602 1286 682 1237Q764 1184 766 1061Q766 993 733 950Q698 905 645 879Q532 825 412 827H297V659Z"
/>
<glyph unicode="4" glyph-name="four" horiz-adv-x="1139" d="M704 494H254L700 1261H704V494ZM704 0H909V326H1089V494H909V1429H616L39 494V326H704V0Z" />
<glyph unicode="5" glyph-name="five" horiz-adv-x="1139" d="M979 1429H192L180 678V678Q211 690 242 702Q270 713 303 719Q367 731 457 731Q606 731 704 657Q801 580 803 426Q801 291 700 219Q604 143 469 143Q293 143 172 215V215L166 23Q207 8 283 -6Q356
-23 473 -25Q704 -23 860 100Q1016 221 1020 457Q1018 651 885 774Q754 897 557 899Q432 897 373 879L385 1261H979V1429Z" />
<glyph unicode="6" glyph-name="six" horiz-adv-x="1139" d="M952 1227L981 1409Q940 1429 852 1442Q764 1454 686 1454Q354 1448 227 1204Q102 967 106 661Q106 541 127 418Q147 297 199 197Q252 96 346 37Q440 -23 588 -25Q788 -23 915 102Q1044 227 1046 448Q1046
645 938 772Q827 897 616 899Q442 901 303 768L299 766Q303 979 401 1130Q500 1282 698 1286Q840 1286 952 1227V1227ZM829 444Q829 326 768 238Q704 145 575 143Q451 145 389 246Q324 338 324 444Q324 567 395 649Q463 729 590 731Q651 731 698 707Q741 682 772
639Q829 551 829 444V444Z" />
<glyph unicode="7" glyph-name="seven" horiz-adv-x="1139" d="M1005 1429H100V1261H797L252 0H477L1005 1261V1429Z" />
<glyph unicode="8" glyph-name="eight" horiz-adv-x="1139" d="M565 -25Q774 -25 915 74Q1059 172 1061 385Q1059 530 977 625Q891 721 760 764Q903 840 962 928Q1018 1016 1018 1132Q1018 1257 903 1354Q788 1450 575 1454Q356 1452 236 1354Q113 1255 113 1112Q111
1010 170 911Q227 813 381 756V752Q250 709 166 614Q78 520 78 375Q82 178 231 78Q377 -25 565 -25V-25ZM844 369Q838 262 764 203Q690 143 584 143Q471 143 387 207Q297 270 295 387Q295 451 317 494Q336 537 371 565Q405 596 448 623Q489 647 532 676V676Q592
649 649 627Q707 602 750 571Q797 543 821 494Q846 444 844 369V369ZM317 1083Q317 1137 344 1175Q367 1212 403 1237Q483 1286 559 1286Q643 1286 719 1247Q756 1227 778 1192Q801 1159 801 1106Q803 1036 770 979Q735 917 612 823V823Q319 950 317 1083V1083Z"
/>
<glyph unicode="9" glyph-name="nine" horiz-adv-x="1139" d="M186 203L158 20Q203 4 289 -8Q375 -25 453 -25Q788 -16 913 227Q1034 465 1032 768Q1032 893 1014 1014Q993 1135 942 1235Q891 1335 797 1395Q702 1452 551 1454Q352 1454 225 1329Q94 1204 92 981Q92
786 205 661Q315 532 522 530Q696 528 836 661L840 664Q838 453 739 301Q641 145 440 143Q299 143 186 203V203ZM309 985Q309 1106 373 1194Q434 1284 563 1286Q690 1282 754 1188Q815 1094 815 985Q815 862 747 782Q680 700 549 698Q489 698 446 727Q401 752 371
793Q309 881 309 985V985Z" />
<glyph unicode=":" glyph-name="colon" horiz-adv-x="569" d="M399 1044H170V815H399V1044ZM170 0H399V229H170V0Z" />
<glyph unicode=";" glyph-name="semicolon" horiz-adv-x="569" d="M41 -272H225L399 229H170L41 -272ZM399 1044H170V815H399V1044Z" />
<glyph unicode="&lt;" glyph-name="less" horiz-adv-x="1229" d="M1135 1053V1053L94 596V440L1135 -16V-16V164L328 518L1135 872V1053Z" />
<glyph unicode="=" glyph-name="equal" horiz-adv-x="1229" d="M96 643H1132V823H96V643ZM96 213H1132V393H96V213Z" />
<glyph unicode="&gt;" glyph-name="greater" horiz-adv-x="1229" d="M94 -16V-16L1135 440V596L94 1053V1053V872L901 518L94 164V-16Z" />
<glyph unicode="?" glyph-name="question" horiz-adv-x="1024" d="M418 401H610V438Q608 520 653 588Q698 651 747 707Q795 762 838 817Q883 874 907 938Q934 1001 934 1081Q930 1266 799 1362Q668 1454 491 1454Q287 1452 152 1386L166 1192V1192Q266 1272 469
1274Q569 1274 643 1227Q715 1175 717 1067Q715 969 659 893Q604 813 545 750Q475 670 446 606Q418 539 418 444V401ZM399 0H629V229H399V0Z" />
<glyph unicode="@" glyph-name="at" horiz-adv-x="1638" d="M750 444Q672 444 629 498Q582 549 582 631Q582 745 659 846Q696 893 745 922Q795 950 854 950Q924 948 967 901Q1012 854 1012 778Q1010 664 938 559Q903 510 856 477Q807 444 750 444V444ZM1259 1089H1106L1075
983V983Q985 1120 842 1118Q641 1114 524 958Q403 807 401 604Q403 469 491 375Q575 279 704 276Q770 276 829 313Q887 346 928 391H932Q936 336 971 307Q1003 276 1051 276Q1112 276 1194 311Q1276 346 1354 416Q1431 487 1483 594Q1534 702 1536 846Q1532 1122
1331 1286Q1132 1452 852 1454Q537 1452 326 1253Q106 1055 102 715Q106 362 326 170Q539 -23 862 -25Q1253 -18 1470 301H1315Q1143 121 870 119Q608 119 442 270Q272 418 270 711Q272 969 432 1139Q588 1307 850 1311Q1081 1311 1235 1184Q1390 1057 1393 815Q1390
655 1313 547Q1278 494 1235 465Q1190 432 1143 432Q1104 432 1106 483Q1106 524 1122 569L1259 1089Z" />
<glyph unicode="A" glyph-name="A" horiz-adv-x="1479" d="M25 0H240L385 360H1085L1231 0H1454L850 1429H635L25 0ZM735 1237L1020 528H451L735 1237V1237Z" />
<glyph unicode="B" glyph-name="B" horiz-adv-x="1251" d="M170 0H551Q776 -2 934 76Q1010 119 1053 195Q1096 268 1096 381Q1094 532 1005 623Q913 713 764 725V729Q1053 786 1059 1069Q1057 1266 919 1350Q784 1431 557 1429H170V0ZM375 651H508Q575 651 643
645Q709 637 762 610Q815 584 848 534Q879 483 879 399Q879 330 852 283Q823 238 774 213Q672 166 528 168H375V651ZM375 1261H590Q686 1261 768 1221Q809 1198 831 1155Q854 1112 854 1049Q854 973 825 926Q797 881 747 856Q698 836 633 827Q565 819 487 819H375V1261Z"
/>
<glyph unicode="C" glyph-name="C" horiz-adv-x="1251" d="M1169 1194L1186 1393Q1032 1456 864 1454Q532 1452 324 1255Q111 1057 109 721Q111 377 317 178Q520 -23 862 -25Q930 -25 1018 -14Q1106 -6 1188 27L1175 225V225Q1120 195 1034 176Q944 156 864 156Q637
158 485 311Q328 459 326 715Q328 962 477 1116Q625 1272 874 1274Q1032 1274 1169 1194V1194Z" />
<glyph unicode="D" glyph-name="D" horiz-adv-x="1479" d="M170 0H592Q1339 2 1354 727Q1350 1061 1132 1245Q919 1427 592 1429H170V0ZM375 1249H614Q842 1247 987 1110Q1135 973 1137 719Q1132 176 590 180H375V1249Z" />
<glyph unicode="E" glyph-name="E" horiz-adv-x="1139" d="M192 0H993V180H397V651H940V831H397V1249H993V1429H192V0Z" />
<glyph unicode="F" glyph-name="F" horiz-adv-x="1024" d="M170 0H375V651H905V831H375V1249H930V1429H170V0Z" />
<glyph unicode="G" glyph-name="G" horiz-adv-x="1479" d="M1268 1175L1284 1382Q1200 1413 1110 1436Q1016 1454 864 1454Q532 1452 324 1255Q111 1057 109 721Q111 377 317 178Q520 -23 862 -25Q1030 -23 1137 -2Q1241 18 1298 39V782H793V614H1094V180Q1077
178 1059 174Q1038 170 1014 166Q969 156 864 156Q637 158 485 311Q328 459 326 715Q328 960 477 1116Q625 1272 874 1274Q1012 1274 1104 1249Q1196 1225 1268 1175V1175Z" />
<glyph unicode="H" glyph-name="H" horiz-adv-x="1479" d="M192 0H397V651H1081V0H1286V1429H1081V831H397V1429H192V0Z" />
<glyph unicode="I" glyph-name="I" horiz-adv-x="569" d="M182 0H387V1429H182V0Z" />
<glyph unicode="J" glyph-name="J" horiz-adv-x="797" d="M43 0Q109 -25 209 -25Q438 -20 526 98Q573 154 594 225Q602 260 608 297Q610 332 610 369V1429H405V434Q405 303 358 231Q309 156 172 156Q113 154 43 176V0Z" />
<glyph unicode="K" glyph-name="K" horiz-adv-x="1366" d="M192 0H397V700V700L1034 0H1333L608 754L1280 1429H1008L397 801V801V1429H192V0Z" />
<glyph unicode="L" glyph-name="L" horiz-adv-x="1024" d="M180 0H983V180H385V1429H180V0Z" />
<glyph unicode="M" glyph-name="M" horiz-adv-x="1933" d="M184 0H389V1237H393L866 0H1067L1540 1237H1544V0H1749V1429H1411L971 242V242L522 1429H184V0Z" />
<glyph unicode="N" glyph-name="N" horiz-adv-x="1479" d="M180 0H385V1175H389L1036 0H1298V1429H1094V279H1089L459 1429H180V0Z" />
<glyph unicode="O" glyph-name="O" horiz-adv-x="1593" d="M326 715Q326 942 444 1106Q561 1268 797 1274Q1034 1268 1151 1106Q1268 942 1268 715Q1268 496 1157 330Q1044 160 797 156Q553 160 440 330Q326 496 326 715V715ZM109 715Q109 383 291 184Q469 -20
797 -25Q1126 -20 1307 184Q1483 383 1485 715Q1483 1040 1304 1245Q1124 1450 797 1454Q469 1450 291 1245Q109 1040 109 715V715Z" />
<glyph unicode="P" glyph-name="P" horiz-adv-x="1139" d="M375 1249H549Q653 1249 756 1194Q803 1167 836 1120Q864 1071 864 1003Q864 934 840 887Q815 840 770 809Q727 778 678 766Q629 752 577 752H375V1249ZM170 0H375V571H575Q674 571 764 596Q854 618 926
670Q1077 768 1081 1001Q1077 1243 926 1339Q772 1431 545 1429H170V0Z" />
<glyph unicode="Q" glyph-name="Q" horiz-adv-x="1593" d="M326 715Q326 942 444 1106Q561 1268 797 1274Q1034 1268 1151 1106Q1268 942 1268 715Q1268 496 1157 330Q1044 160 797 156Q553 160 440 330Q326 496 326 715V715ZM1178 -264H1431L1100 37Q1481 217
1485 715Q1483 1040 1304 1245Q1124 1450 797 1454Q469 1450 291 1245Q109 1040 109 715Q109 383 291 184Q469 -20 797 -25Q858 -25 911 -16L1178 -264Z" />
<glyph unicode="R" glyph-name="R" horiz-adv-x="1251" d="M170 0H375V635H498Q580 637 637 618Q692 596 737 496L956 0H1190L919 569Q887 635 858 668Q829 696 780 713V717Q909 739 991 827Q1073 911 1075 1042Q1075 1171 1030 1249Q983 1327 905 1366Q827 1405
727 1419Q629 1429 520 1429H170V0ZM375 1249H571Q856 1245 858 1038Q854 819 549 815H375V1249Z" />
<glyph unicode="S" glyph-name="S" horiz-adv-x="1024" d="M831 1214L860 1403Q704 1454 555 1454Q356 1454 229 1356Q98 1257 96 1065Q96 983 125 926Q152 864 195 819Q285 733 403 682Q463 655 518 629Q573 602 616 569Q661 537 686 494Q711 451 711 389Q711
328 684 285Q659 240 614 211Q526 154 430 156Q350 156 270 180Q188 203 133 225L113 35Q254 -20 405 -25Q627 -25 776 76Q926 176 928 401Q926 575 833 670Q743 762 620 817Q565 848 512 874Q457 899 412 930Q369 960 342 997Q313 1034 313 1083Q313 1141 338
1178Q360 1214 397 1235Q434 1257 477 1266Q520 1274 563 1274Q641 1274 698 1261Q758 1245 831 1214V1214Z" />
<glyph unicode="T" glyph-name="T" horiz-adv-x="1139" d="M467 0H672V1249H1116V1429H23V1249H467V0Z" />
<glyph unicode="U" glyph-name="U" horiz-adv-x="1479" d="M1294 1429H1089V618Q1092 410 1016 285Q936 158 739 156Q545 158 467 285Q387 410 389 618V1429H184V592Q190 -20 739 -25Q1288 -20 1294 592V1429Z" />
<glyph unicode="V" glyph-name="V" horiz-adv-x="1366" d="M1354 1429H1139L686 180H682L242 1429H12L551 0H807L1354 1429Z" />
<glyph unicode="W" glyph-name="W" horiz-adv-x="2048" d="M436 0H711L1024 1249H1028L1339 0H1603L2044 1429H1827L1485 205H1481L1171 1429H881L575 205H571L229 1429H4L436 0Z" />
<glyph unicode="X" glyph-name="X" horiz-adv-x="1366" d="M16 0H262L670 606V606L1092 0H1350L821 747L1302 1429H1069L690 881V881L309 1429H63L543 743L16 0Z" />
<glyph unicode="Y" glyph-name="Y" horiz-adv-x="1366" d="M582 0H786V598L1343 1429H1104L688 788V788L262 1429H23L582 598V0Z" />
<glyph unicode="Z" glyph-name="Z" horiz-adv-x="1139" d="M66 0H1055V180H303L1042 1245V1429H90V1249H807L66 184V0Z" />
<glyph unicode="[" glyph-name="bracketleft" horiz-adv-x="682" d="M195 -287H582V-143H375V1405H582V1548H195V-287Z" />
<glyph unicode="\" glyph-name="backslash" horiz-adv-x="569" d="M440 -25H620L129 1454H-51L440 -25Z" />
<glyph unicode="]" glyph-name="bracketright" horiz-adv-x="682" d="M487 1548H100V1405H307V-143H100V-287H487V1548Z" />
<glyph unicode="^" glyph-name="asciicircum" horiz-adv-x="1229" d="M123 602H307L614 1241V1241L922 602H1106L698 1429H530L123 602Z" />
<glyph unicode="_" glyph-name="underscore" horiz-adv-x="1024" d="M0 -154V-256H1024V-154H0Z" />
<glyph unicode="`" glyph-name="grave" horiz-adv-x="569" d="M238 1485H14L283 1190H420L238 1485Z" />
<glyph unicode="a" glyph-name="a" horiz-adv-x="1139" d="M223 807V807Q352 911 526 913Q670 913 729 846Q784 778 784 641Q682 645 580 645Q420 647 264 571Q190 532 143 467Q94 399 94 301Q96 133 203 53Q307 -25 477 -25Q608 -23 688 33Q768 86 801 135H805V0H985Q977
37 977 205V637Q983 1067 557 1069Q358 1065 213 971L223 807ZM784 405Q784 287 713 211Q639 133 494 131Q424 131 365 176Q301 219 299 301Q299 371 342 414Q383 453 442 471Q504 491 563 498Q623 502 661 502Q723 498 784 498V405Z" />
<glyph unicode="b" glyph-name="b" horiz-adv-x="1251" d="M164 0H348V147H352Q393 86 481 33Q571 -23 709 -25Q944 -20 1053 152Q1157 317 1157 541Q1157 760 1046 911Q934 1065 707 1069Q571 1069 489 1024Q405 977 360 901H356V1536H164V0ZM952 526Q956 395
889 268Q854 209 799 172Q743 131 664 131Q502 135 430 262Q354 383 356 520Q356 674 434 790Q510 909 666 913Q821 909 891 793Q956 676 952 526V526Z" />
<glyph unicode="c" glyph-name="c" horiz-adv-x="909" d="M844 1028Q743 1067 610 1069Q367 1067 225 915Q80 766 78 522Q80 293 227 139Q371 -20 610 -25Q664 -25 729 -16Q793 -8 852 18L838 190V190Q739 131 631 131Q448 133 367 258Q324 313 305 385Q283 455
283 522Q283 678 371 795Q459 909 618 913Q715 913 827 868L844 1028Z" />
<glyph unicode="d" glyph-name="d" horiz-adv-x="1251" d="M903 0H1087V1536H895V901H891Q848 977 766 1024Q682 1069 545 1069Q317 1065 207 911Q94 760 94 541Q94 319 203 154Q309 -18 543 -25Q684 -23 772 33Q862 86 899 147H903V0ZM299 526Q295 676 365 793Q430
909 586 913Q743 909 819 790Q895 674 895 520Q895 383 823 262Q750 135 588 131Q512 131 457 172Q401 209 365 268Q295 395 299 526V526Z" />
<glyph unicode="e" glyph-name="e" horiz-adv-x="1139" d="M965 236V236Q926 205 836 170Q743 131 643 131Q504 133 403 229Q301 324 299 479H1044Q1044 606 1024 715Q1001 821 946 901Q842 1065 584 1069Q360 1067 229 924Q96 778 94 541Q94 283 227 131Q358
-23 635 -25Q762 -23 838 0Q911 23 965 43V236ZM299 623Q309 731 375 819Q440 909 580 913Q707 911 774 829Q840 745 840 623H299Z" />
<glyph unicode="f" glyph-name="f" horiz-adv-x="797" d="M289 0H481V889H758V1044H481V1157Q479 1266 514 1335Q549 1403 668 1405Q721 1405 760 1393L768 1548Q711 1558 639 1560Q432 1558 358 1448Q287 1335 289 1141V1044H43V889H289V0Z" />
<glyph unicode="g" glyph-name="g" horiz-adv-x="1251" d="M1087 1044H909V889H905Q864 975 782 1022Q698 1069 561 1069Q326 1063 211 893Q94 727 94 514Q94 305 207 158Q317 2 541 0Q643 0 737 41Q827 82 891 162H895V59Q889 -291 571 -299Q387 -301 195 -205V-205L174
-383Q405 -457 549 -455Q1094 -448 1087 45V1044ZM590 156Q455 158 379 266Q299 373 299 524Q299 668 373 788Q446 909 590 913Q743 911 821 795Q895 678 895 510Q893 362 811 262Q729 158 590 156V156Z" />
<glyph unicode="h" glyph-name="h" horiz-adv-x="1251" d="M164 0H356V483Q356 678 434 795Q512 911 674 913Q903 903 895 541V0H1087V620Q1092 1061 696 1069Q588 1069 502 1026Q414 979 360 895H356V1536H164V0Z" />
<glyph unicode="i" glyph-name="i" horiz-adv-x="569" d="M188 0H381V1044H188V0ZM393 1495H176V1278H393V1495Z" />
<glyph unicode="j" glyph-name="j" horiz-adv-x="569" d="M-33 -446Q16 -455 86 -455Q197 -453 256 -408Q317 -367 344 -301Q371 -235 377 -164Q381 -94 381 -37V1044H188V-66Q188 -168 156 -225Q119 -285 51 -287Q4 -287 -27 -281L-33 -446ZM393 1495H176V1278H393V1495Z"
/>
<glyph unicode="k" glyph-name="k" horiz-adv-x="1139" d="M164 0H356V537V537L823 0H1100L553 582L1038 1044H776L356 620V620V1536H164V0Z" />
<glyph unicode="l" glyph-name="l" horiz-adv-x="569" d="M188 0H381V1536H188V0Z" />
<glyph unicode="m" glyph-name="m" horiz-adv-x="1821" d="M162 0H354V526Q354 680 420 795Q483 909 629 913Q688 913 725 889Q762 864 782 819Q803 776 811 725Q815 672 815 623V0H1008V526Q1008 680 1073 795Q1137 909 1282 913Q1341 913 1378 889Q1415 864
1436 819Q1456 776 1464 725Q1468 672 1468 623V0H1661V670Q1663 846 1581 956Q1497 1067 1298 1069Q1225 1069 1130 1026Q1034 979 975 866V866Q934 973 854 1022Q772 1069 678 1069Q453 1069 346 893H342V1044H162V0Z" />
<glyph unicode="n" glyph-name="n" horiz-adv-x="1251" d="M164 0H356V483Q356 678 434 795Q512 911 674 913Q903 903 895 541V0H1087V620Q1092 1061 696 1069Q586 1069 494 1020Q399 969 354 879H350V1044H164V0Z" />
<glyph unicode="o" glyph-name="o" horiz-adv-x="1251" d="M94 522Q96 293 244 139Q387 -20 627 -25Q866 -20 1012 139Q1155 293 1157 522Q1155 766 1012 915Q870 1067 627 1069Q383 1067 242 915Q96 766 94 522V522ZM299 522Q299 678 387 795Q471 909 627 913Q782
909 868 795Q952 678 952 522Q952 377 874 258Q795 133 627 131Q459 133 379 258Q299 377 299 522V522Z" />
<glyph unicode="p" glyph-name="p" horiz-adv-x="1251" d="M164 -430H356V143H360Q405 72 489 25Q571 -23 709 -25Q944 -20 1053 152Q1157 317 1157 541Q1157 760 1046 911Q934 1065 707 1069Q567 1067 481 1014Q393 958 352 897H348V1044H164V-430ZM952 526Q956
395 889 268Q854 209 799 172Q743 131 664 131Q502 135 430 262Q354 383 356 520Q356 674 434 790Q510 909 666 913Q821 909 891 793Q956 676 952 526V526Z" />
<glyph unicode="q" glyph-name="q" horiz-adv-x="1251" d="M1087 1044H903V895H899Q862 958 772 1014Q684 1067 545 1069Q317 1065 207 911Q94 760 94 541Q94 319 203 154Q309 -18 543 -25Q788 -20 891 137H895V-430H1087V1044ZM299 526Q295 676 365 793Q430 909
586 913Q743 909 819 790Q895 674 895 520Q895 383 823 262Q750 135 588 131Q512 131 457 172Q401 209 365 268Q295 395 299 526V526Z" />
<glyph unicode="r" glyph-name="r" horiz-adv-x="797" d="M164 0H356V475Q356 674 436 786Q512 899 641 901Q692 901 747 883V1055Q696 1069 620 1069Q537 1069 463 1018Q391 967 348 883H344V1044H164V0Z" />
<glyph unicode="s" glyph-name="s" horiz-adv-x="797" d="M86 205L76 33Q143 0 217 -12Q289 -25 362 -25Q510 -25 616 55Q725 135 727 301Q727 367 711 412Q692 457 659 489Q629 522 588 547Q545 571 502 590Q461 610 420 631Q381 649 346 670Q315 690 295 721Q274
747 274 786Q274 852 332 883Q383 913 459 913Q498 913 563 899Q627 883 661 860L678 1028Q569 1067 438 1069Q281 1069 178 991Q72 911 70 747Q72 643 141 580Q176 549 215 524Q256 500 297 477Q387 436 455 395Q487 375 506 346Q522 317 522 281Q520 199 459
166Q397 131 326 131Q283 131 215 149Q147 168 86 205V205Z" />
<glyph unicode="t" glyph-name="t" horiz-adv-x="797" d="M719 1044H442V1347V1347L250 1286V1044H14V889H250V279Q256 -27 571 -25Q618 -25 661 -14Q704 -4 735 4V168Q692 133 604 131Q537 131 491 180Q442 227 442 317V889H719V1044Z" />
<glyph unicode="u" glyph-name="u" horiz-adv-x="1251" d="M1087 1044H895V561Q895 369 819 252Q743 133 577 131Q348 143 356 504V1044H164V424Q160 -16 555 -25Q668 -23 760 27Q852 76 897 166H901V0H1087V1044Z" />
<glyph unicode="v" glyph-name="v" horiz-adv-x="1024" d="M1001 1044H809L520 192H516L233 1044H23L397 0H627L1001 1044Z" />
<glyph unicode="w" glyph-name="w" horiz-adv-x="1706" d="M1681 1044H1493L1239 180H1235L973 1044H745L479 180H475L236 1044H25L360 0H584L848 876H852L1122 0H1345L1681 1044Z" />
<glyph unicode="x" glyph-name="x" horiz-adv-x="1024" d="M20 0H250L508 410V410L766 0H1003L635 547L971 1044H756L524 672V672L297 1044H57L397 547L20 0Z" />
<glyph unicode="y" glyph-name="y" horiz-adv-x="1024" d="M74 -440Q119 -453 205 -455Q299 -453 367 -412Q434 -373 475 -311Q520 -250 551 -172Q582 -96 606 -23L991 1044H797L510 180H506L225 1044H14L369 70Q379 43 393 10Q403 -20 405 -41Q405 -70 356 -176Q330
-223 287 -260Q242 -297 176 -299Q125 -297 86 -283L74 -440Z" />
<glyph unicode="z" glyph-name="z" horiz-adv-x="1024" d="M88 0H936V156H311L913 876V1044H117V889H690L88 168V0Z" />
<glyph unicode="{" glyph-name="braceleft" horiz-adv-x="682" d="M643 1548H483Q405 1548 332 1485Q254 1419 252 1290V907Q250 811 197 758Q141 702 76 702V559Q141 559 197 506Q250 451 252 344V-29Q254 -154 332 -219Q367 -252 408 -268Q446 -287 483 -287H643V-143H534Q475
-141 455 -92Q432 -45 432 12V377Q432 453 412 502Q389 551 358 577Q328 604 297 616Q266 629 244 629V633Q266 639 297 653Q328 666 358 694Q389 723 412 768Q432 811 432 879V1249Q432 1311 455 1358Q475 1403 534 1405H643V1548Z" />
<glyph unicode="|" glyph-name="bar" horiz-adv-x="455" d="M137 1536V-512H317V1536H137Z" />
<glyph unicode="}" glyph-name="braceright" horiz-adv-x="682" d="M39 -287H199Q279 -287 352 -219Q428 -154 430 -29V354Q432 453 489 506Q543 559 606 559V702Q543 702 489 760Q432 813 430 917V1290Q428 1419 352 1485Q319 1520 279 1534Q238 1548 199 1548H39V1405H147Q211
1403 231 1358Q250 1311 250 1249V885Q250 813 274 764Q295 715 326 688Q358 661 389 649Q418 637 438 633V629Q391 625 326 571Q295 545 274 498Q250 451 250 383V12Q250 -45 231 -92Q211 -141 147 -143H39V-287Z" />
<glyph unicode="~" glyph-name="asciitilde" horiz-adv-x="1229" d="M1014 682V682Q981 627 938 582Q895 534 833 532Q793 532 739 559Q684 582 625 608Q565 637 510 655Q451 672 397 672Q297 670 236 618Q174 565 141 498L215 354V354Q252 412 293 457Q336 502
395 504Q438 502 494 479Q547 455 604 428Q664 401 723 385Q778 365 831 365Q936 367 995 420Q1055 471 1087 539L1014 682Z" />
<glyph unicode="&#x80;" glyph-name="uni20AC" horiz-adv-x="1139" d="M1192 1401L1151 1231Q1049 1286 897 1286Q721 1286 601 1185T434 911H1085L1059 801H410Q401 715 410 629H1022L997 518H434Q479 346 598 250Q721 147 895 147Q1042 147 1151 199L1163 20Q1051
-25 879 -25Q618 -25 439 119T207 518H12L39 629H193Q184 717 193 801H12L39 911H209Q264 1159 444 1306T879 1454Q1059 1454 1192 1401Z" />
</font>
</defs>
</svg>
